<mxfile host="Electron" agent="Mozilla/5.0 (X11; Linux x86_64) AppleWebKit/537.36 (KHTML, like Gecko) draw.io/26.1.1 Chrome/132.0.6834.210 Electron/34.3.2 Safari/537.36" version="26.1.1">
  <diagram name="Page-1" id="52a04d89-c75d-2922-d76d-85b35f80e030">
    <mxGraphModel dx="304" dy="335" grid="1" gridSize="10" guides="1" tooltips="1" connect="1" arrows="1" fold="1" page="1" pageScale="1" pageWidth="10000" pageHeight="10000" background="none" math="0" shadow="0">
      <root>
        <mxCell id="0" />
        <mxCell id="1" parent="0" />
        <mxCell id="KjCJMhXTgOUop05QMx9L-4" value="" style="edgeStyle=orthogonalEdgeStyle;rounded=0;orthogonalLoop=1;jettySize=auto;html=1;" parent="1" source="KjCJMhXTgOUop05QMx9L-2" edge="1">
          <mxGeometry relative="1" as="geometry">
            <mxPoint x="430" y="260" as="targetPoint" />
          </mxGeometry>
        </mxCell>
        <mxCell id="KjCJMhXTgOUop05QMx9L-2" value="Init&lt;br&gt;&lt;div&gt;Start displays&amp;nbsp;&lt;/div&gt;&lt;div&gt;and sensors&lt;/div&gt;" style="rounded=1;whiteSpace=wrap;html=1;" parent="1" vertex="1">
          <mxGeometry x="370" y="50" width="120" height="120" as="geometry" />
        </mxCell>
        <mxCell id="KjCJMhXTgOUop05QMx9L-11" value="" style="edgeStyle=orthogonalEdgeStyle;rounded=0;orthogonalLoop=1;jettySize=auto;html=1;" parent="1" source="KjCJMhXTgOUop05QMx9L-5" target="KjCJMhXTgOUop05QMx9L-10" edge="1">
          <mxGeometry relative="1" as="geometry" />
        </mxCell>
        <mxCell id="KjCJMhXTgOUop05QMx9L-12" style="edgeStyle=orthogonalEdgeStyle;rounded=0;orthogonalLoop=1;jettySize=auto;html=1;exitX=1;exitY=0.5;exitDx=0;exitDy=0;" parent="1" source="KjCJMhXTgOUop05QMx9L-5" target="KjCJMhXTgOUop05QMx9L-7" edge="1">
          <mxGeometry relative="1" as="geometry" />
        </mxCell>
        <mxCell id="KjCJMhXTgOUop05QMx9L-5" value="Light sensor brightness&amp;lt; Threshold" style="shape=parallelogram;perimeter=parallelogramPerimeter;whiteSpace=wrap;html=1;fixedSize=1;" parent="1" vertex="1">
          <mxGeometry x="370" y="260" width="120" height="60" as="geometry" />
        </mxCell>
        <mxCell id="KjCJMhXTgOUop05QMx9L-13" style="edgeStyle=orthogonalEdgeStyle;rounded=0;orthogonalLoop=1;jettySize=auto;html=1;" parent="1" source="KjCJMhXTgOUop05QMx9L-7" edge="1">
          <mxGeometry relative="1" as="geometry">
            <mxPoint x="430" y="355" as="targetPoint" />
            <Array as="points">
              <mxPoint x="590" y="355" />
            </Array>
          </mxGeometry>
        </mxCell>
        <mxCell id="KjCJMhXTgOUop05QMx9L-7" value="Turn on Lights" style="rounded=1;whiteSpace=wrap;html=1;" parent="1" vertex="1">
          <mxGeometry x="530" y="260" width="120" height="60" as="geometry" />
        </mxCell>
        <mxCell id="KjCJMhXTgOUop05QMx9L-16" style="edgeStyle=orthogonalEdgeStyle;rounded=0;orthogonalLoop=1;jettySize=auto;html=1;exitX=1;exitY=0.5;exitDx=0;exitDy=0;" parent="1" source="KjCJMhXTgOUop05QMx9L-10" target="KjCJMhXTgOUop05QMx9L-15" edge="1">
          <mxGeometry relative="1" as="geometry" />
        </mxCell>
        <mxCell id="KjCJMhXTgOUop05QMx9L-17" style="edgeStyle=orthogonalEdgeStyle;rounded=0;orthogonalLoop=1;jettySize=auto;html=1;" parent="1" source="KjCJMhXTgOUop05QMx9L-10" edge="1">
          <mxGeometry relative="1" as="geometry">
            <mxPoint x="430" y="500" as="targetPoint" />
          </mxGeometry>
        </mxCell>
        <mxCell id="KjCJMhXTgOUop05QMx9L-10" value="Temperature&amp;nbsp;&lt;div&gt;input?&lt;/div&gt;" style="shape=parallelogram;perimeter=parallelogramPerimeter;whiteSpace=wrap;html=1;fixedSize=1;" parent="1" vertex="1">
          <mxGeometry x="370" y="400" width="120" height="60" as="geometry" />
        </mxCell>
        <mxCell id="KjCJMhXTgOUop05QMx9L-18" style="edgeStyle=orthogonalEdgeStyle;rounded=0;orthogonalLoop=1;jettySize=auto;html=1;" parent="1" source="KjCJMhXTgOUop05QMx9L-15" edge="1">
          <mxGeometry relative="1" as="geometry">
            <mxPoint x="430" y="480" as="targetPoint" />
            <Array as="points">
              <mxPoint x="590" y="480" />
              <mxPoint x="430" y="480" />
            </Array>
          </mxGeometry>
        </mxCell>
        <mxCell id="KjCJMhXTgOUop05QMx9L-15" value="Change Temp&lt;div&gt;Threshold&lt;/div&gt;" style="rounded=1;whiteSpace=wrap;html=1;" parent="1" vertex="1">
          <mxGeometry x="530" y="400" width="120" height="60" as="geometry" />
        </mxCell>
        <mxCell id="KjCJMhXTgOUop05QMx9L-23" style="edgeStyle=orthogonalEdgeStyle;rounded=0;orthogonalLoop=1;jettySize=auto;html=1;exitX=1;exitY=0.5;exitDx=0;exitDy=0;entryX=0;entryY=0.5;entryDx=0;entryDy=0;" parent="1" source="KjCJMhXTgOUop05QMx9L-20" target="KjCJMhXTgOUop05QMx9L-21" edge="1">
          <mxGeometry relative="1" as="geometry" />
        </mxCell>
        <mxCell id="KjCJMhXTgOUop05QMx9L-24" style="edgeStyle=orthogonalEdgeStyle;rounded=0;orthogonalLoop=1;jettySize=auto;html=1;exitX=0;exitY=0.5;exitDx=0;exitDy=0;" parent="1" source="KjCJMhXTgOUop05QMx9L-20" target="KjCJMhXTgOUop05QMx9L-22" edge="1">
          <mxGeometry relative="1" as="geometry" />
        </mxCell>
        <mxCell id="KjCJMhXTgOUop05QMx9L-26" value="" style="edgeStyle=orthogonalEdgeStyle;rounded=0;orthogonalLoop=1;jettySize=auto;html=1;" parent="1" source="KjCJMhXTgOUop05QMx9L-20" target="KjCJMhXTgOUop05QMx9L-25" edge="1">
          <mxGeometry relative="1" as="geometry" />
        </mxCell>
        <mxCell id="KjCJMhXTgOUop05QMx9L-20" value="Temperature &amp;lt; Threshold&lt;div&gt;Temp = Threshold&lt;/div&gt;&lt;div&gt;Temp &amp;gt; Threshold&lt;/div&gt;" style="shape=parallelogram;perimeter=parallelogramPerimeter;whiteSpace=wrap;html=1;fixedSize=1;" parent="1" vertex="1">
          <mxGeometry x="340" y="500" width="180" height="60" as="geometry" />
        </mxCell>
        <mxCell id="KjCJMhXTgOUop05QMx9L-29" style="edgeStyle=orthogonalEdgeStyle;rounded=0;orthogonalLoop=1;jettySize=auto;html=1;exitX=0.5;exitY=1;exitDx=0;exitDy=0;" parent="1" source="KjCJMhXTgOUop05QMx9L-21" edge="1">
          <mxGeometry relative="1" as="geometry">
            <mxPoint x="430" y="590" as="targetPoint" />
            <Array as="points">
              <mxPoint x="650" y="590" />
              <mxPoint x="430" y="590" />
            </Array>
          </mxGeometry>
        </mxCell>
        <mxCell id="KjCJMhXTgOUop05QMx9L-21" value="Start Heater&amp;nbsp;" style="rounded=1;whiteSpace=wrap;html=1;" parent="1" vertex="1">
          <mxGeometry x="590" y="500" width="120" height="60" as="geometry" />
        </mxCell>
        <mxCell id="KjCJMhXTgOUop05QMx9L-30" style="edgeStyle=orthogonalEdgeStyle;rounded=0;orthogonalLoop=1;jettySize=auto;html=1;exitX=0.5;exitY=1;exitDx=0;exitDy=0;" parent="1" source="KjCJMhXTgOUop05QMx9L-22" edge="1">
          <mxGeometry relative="1" as="geometry">
            <mxPoint x="430" y="610.0000000000002" as="targetPoint" />
            <Array as="points">
              <mxPoint x="230" y="610" />
            </Array>
          </mxGeometry>
        </mxCell>
        <mxCell id="KjCJMhXTgOUop05QMx9L-22" value="Start A/C" style="rounded=1;whiteSpace=wrap;html=1;" parent="1" vertex="1">
          <mxGeometry x="170" y="500" width="120" height="60" as="geometry" />
        </mxCell>
        <mxCell id="KjCJMhXTgOUop05QMx9L-28" style="edgeStyle=orthogonalEdgeStyle;rounded=0;orthogonalLoop=1;jettySize=auto;html=1;exitX=1;exitY=0.5;exitDx=0;exitDy=0;entryX=0;entryY=0.5;entryDx=0;entryDy=0;" parent="1" source="KjCJMhXTgOUop05QMx9L-25" target="KjCJMhXTgOUop05QMx9L-27" edge="1">
          <mxGeometry relative="1" as="geometry" />
        </mxCell>
        <mxCell id="KjCJMhXTgOUop05QMx9L-32" style="edgeStyle=orthogonalEdgeStyle;rounded=0;orthogonalLoop=1;jettySize=auto;html=1;entryX=0.5;entryY=0;entryDx=0;entryDy=0;" parent="1" source="KjCJMhXTgOUop05QMx9L-25" target="KjCJMhXTgOUop05QMx9L-33" edge="1">
          <mxGeometry relative="1" as="geometry">
            <mxPoint x="430" y="760.0000000000002" as="targetPoint" />
          </mxGeometry>
        </mxCell>
        <mxCell id="KjCJMhXTgOUop05QMx9L-25" value="Timer &amp;gt; IDLE_TIME" style="shape=parallelogram;perimeter=parallelogramPerimeter;whiteSpace=wrap;html=1;fixedSize=1;" parent="1" vertex="1">
          <mxGeometry x="340" y="640" width="180" height="60" as="geometry" />
        </mxCell>
        <mxCell id="KjCJMhXTgOUop05QMx9L-31" style="edgeStyle=orthogonalEdgeStyle;rounded=0;orthogonalLoop=1;jettySize=auto;html=1;exitX=0.5;exitY=1;exitDx=0;exitDy=0;" parent="1" source="KjCJMhXTgOUop05QMx9L-27" edge="1">
          <mxGeometry relative="1" as="geometry">
            <mxPoint x="430" y="740" as="targetPoint" />
            <Array as="points">
              <mxPoint x="650" y="740" />
            </Array>
          </mxGeometry>
        </mxCell>
        <mxCell id="KjCJMhXTgOUop05QMx9L-27" value="Lock Doors" style="rounded=1;whiteSpace=wrap;html=1;" parent="1" vertex="1">
          <mxGeometry x="590" y="640" width="120" height="60" as="geometry" />
        </mxCell>
        <mxCell id="KjCJMhXTgOUop05QMx9L-34" style="edgeStyle=orthogonalEdgeStyle;rounded=0;orthogonalLoop=1;jettySize=auto;html=1;entryX=0;entryY=0.5;entryDx=0;entryDy=0;" parent="1" source="KjCJMhXTgOUop05QMx9L-33" target="KjCJMhXTgOUop05QMx9L-35" edge="1">
          <mxGeometry relative="1" as="geometry">
            <mxPoint x="540" y="800" as="targetPoint" />
          </mxGeometry>
        </mxCell>
        <mxCell id="KjCJMhXTgOUop05QMx9L-50" style="edgeStyle=orthogonalEdgeStyle;rounded=0;orthogonalLoop=1;jettySize=auto;html=1;entryX=1;entryY=0.5;entryDx=0;entryDy=0;" parent="1" source="KjCJMhXTgOUop05QMx9L-33" target="KjCJMhXTgOUop05QMx9L-37" edge="1">
          <mxGeometry relative="1" as="geometry" />
        </mxCell>
        <mxCell id="KjCJMhXTgOUop05QMx9L-33" value="Unlock Attempt&lt;div&gt;W/ Keypad&lt;/div&gt;" style="shape=parallelogram;perimeter=parallelogramPerimeter;whiteSpace=wrap;html=1;fixedSize=1;" parent="1" vertex="1">
          <mxGeometry x="370" y="770" width="120" height="60" as="geometry" />
        </mxCell>
        <mxCell id="KjCJMhXTgOUop05QMx9L-48" style="edgeStyle=orthogonalEdgeStyle;rounded=0;orthogonalLoop=1;jettySize=auto;html=1;exitX=0.5;exitY=1;exitDx=0;exitDy=0;" parent="1" source="KjCJMhXTgOUop05QMx9L-35" target="KjCJMhXTgOUop05QMx9L-36" edge="1">
          <mxGeometry relative="1" as="geometry" />
        </mxCell>
        <mxCell id="KjCJMhXTgOUop05QMx9L-35" value="Correct?" style="rounded=1;whiteSpace=wrap;html=1;" parent="1" vertex="1">
          <mxGeometry x="550" y="770" width="120" height="60" as="geometry" />
        </mxCell>
        <mxCell id="KjCJMhXTgOUop05QMx9L-47" style="edgeStyle=orthogonalEdgeStyle;rounded=0;orthogonalLoop=1;jettySize=auto;html=1;exitX=0;exitY=0.5;exitDx=0;exitDy=0;" parent="1" source="KjCJMhXTgOUop05QMx9L-36" edge="1">
          <mxGeometry relative="1" as="geometry">
            <mxPoint x="440" y="1220" as="targetPoint" />
          </mxGeometry>
        </mxCell>
        <mxCell id="KjCJMhXTgOUop05QMx9L-36" value="Unlock Doors" style="rounded=1;whiteSpace=wrap;html=1;" parent="1" vertex="1">
          <mxGeometry x="550" y="870" width="120" height="60" as="geometry" />
        </mxCell>
        <mxCell id="KjCJMhXTgOUop05QMx9L-52" style="edgeStyle=orthogonalEdgeStyle;rounded=0;orthogonalLoop=1;jettySize=auto;html=1;exitX=0.5;exitY=1;exitDx=0;exitDy=0;" parent="1" source="KjCJMhXTgOUop05QMx9L-37" target="KjCJMhXTgOUop05QMx9L-38" edge="1">
          <mxGeometry relative="1" as="geometry" />
        </mxCell>
        <mxCell id="KjCJMhXTgOUop05QMx9L-37" value="Incorrect?" style="rounded=1;whiteSpace=wrap;html=1;" parent="1" vertex="1">
          <mxGeometry x="210" y="770" width="120" height="60" as="geometry" />
        </mxCell>
        <mxCell id="KjCJMhXTgOUop05QMx9L-53" style="edgeStyle=orthogonalEdgeStyle;rounded=0;orthogonalLoop=1;jettySize=auto;html=1;exitX=0.5;exitY=1;exitDx=0;exitDy=0;entryX=0.5;entryY=0;entryDx=0;entryDy=0;" parent="1" source="KjCJMhXTgOUop05QMx9L-38" target="KjCJMhXTgOUop05QMx9L-39" edge="1">
          <mxGeometry relative="1" as="geometry" />
        </mxCell>
        <mxCell id="KjCJMhXTgOUop05QMx9L-38" value="Increment Failed Attempts Counter" style="rounded=1;whiteSpace=wrap;html=1;" parent="1" vertex="1">
          <mxGeometry x="210" y="850" width="120" height="60" as="geometry" />
        </mxCell>
        <mxCell id="KjCJMhXTgOUop05QMx9L-40" style="edgeStyle=orthogonalEdgeStyle;rounded=0;orthogonalLoop=1;jettySize=auto;html=1;" parent="1" source="KjCJMhXTgOUop05QMx9L-39" edge="1">
          <mxGeometry relative="1" as="geometry">
            <mxPoint x="370" y="960" as="targetPoint" />
          </mxGeometry>
        </mxCell>
        <mxCell id="KjCJMhXTgOUop05QMx9L-51" style="edgeStyle=orthogonalEdgeStyle;rounded=0;orthogonalLoop=1;jettySize=auto;html=1;exitX=0;exitY=0.5;exitDx=0;exitDy=0;entryX=0;entryY=0.5;entryDx=0;entryDy=0;" parent="1" source="KjCJMhXTgOUop05QMx9L-39" target="KjCJMhXTgOUop05QMx9L-43" edge="1">
          <mxGeometry relative="1" as="geometry">
            <mxPoint x="160" y="1040" as="targetPoint" />
            <Array as="points">
              <mxPoint x="160" y="960" />
              <mxPoint x="160" y="1040" />
            </Array>
          </mxGeometry>
        </mxCell>
        <mxCell id="KjCJMhXTgOUop05QMx9L-39" value="Attemps &amp;gt; 3?" style="shape=parallelogram;perimeter=parallelogramPerimeter;whiteSpace=wrap;html=1;fixedSize=1;" parent="1" vertex="1">
          <mxGeometry x="210" y="930" width="120" height="60" as="geometry" />
        </mxCell>
        <mxCell id="KjCJMhXTgOUop05QMx9L-46" style="edgeStyle=orthogonalEdgeStyle;rounded=0;orthogonalLoop=1;jettySize=auto;html=1;exitX=1;exitY=0.5;exitDx=0;exitDy=0;" parent="1" source="KjCJMhXTgOUop05QMx9L-41" edge="1">
          <mxGeometry relative="1" as="geometry">
            <mxPoint x="440" y="960" as="targetPoint" />
          </mxGeometry>
        </mxCell>
        <mxCell id="KjCJMhXTgOUop05QMx9L-41" value="No" style="rounded=1;whiteSpace=wrap;html=1;" parent="1" vertex="1">
          <mxGeometry x="340" y="930" width="50" height="60" as="geometry" />
        </mxCell>
        <mxCell id="KjCJMhXTgOUop05QMx9L-45" value="" style="edgeStyle=orthogonalEdgeStyle;rounded=0;orthogonalLoop=1;jettySize=auto;html=1;" parent="1" source="KjCJMhXTgOUop05QMx9L-43" target="KjCJMhXTgOUop05QMx9L-44" edge="1">
          <mxGeometry relative="1" as="geometry" />
        </mxCell>
        <mxCell id="KjCJMhXTgOUop05QMx9L-43" value="Yes" style="rounded=1;whiteSpace=wrap;html=1;" parent="1" vertex="1">
          <mxGeometry x="245" y="1010" width="50" height="60" as="geometry" />
        </mxCell>
        <mxCell id="KjCJMhXTgOUop05QMx9L-49" style="edgeStyle=orthogonalEdgeStyle;rounded=0;orthogonalLoop=1;jettySize=auto;html=1;exitX=1;exitY=0.5;exitDx=0;exitDy=0;" parent="1" source="KjCJMhXTgOUop05QMx9L-44" edge="1">
          <mxGeometry relative="1" as="geometry">
            <mxPoint x="440" y="1120" as="targetPoint" />
          </mxGeometry>
        </mxCell>
        <mxCell id="KjCJMhXTgOUop05QMx9L-44" value="Sound alarm, set lights to red" style="rounded=1;whiteSpace=wrap;html=1;" parent="1" vertex="1">
          <mxGeometry x="220" y="1090" width="100" height="60" as="geometry" />
        </mxCell>
      </root>
    </mxGraphModel>
  </diagram>
</mxfile>
